<svg xmlns="http://www.w3.org/2000/svg" width="44" height="44" viewBox="0 0 24 24">
  <style>
    svg {
      fill:none;
      stroke-linecap:round;
      stroke-linejoin:round;
      stroke-width:2;
      stroke:#181e24;
    }
    @media (prefers-color-scheme: dark) {
      svg {
          stroke: #eeeeee;
      }
    }
  </style>
  <path d="M0 0h24v24H0z" style="fill:none;stroke:none"/>
  <path d="M5 7h1a2 2 0 0 0 2-2 1 1 0 0 1 1-1h6a1 1 0 0 1 1 1 2 2 0 0 0 2 2h1a2 2 0 0 1 2 2v9a2 2 0 0 1-2 2h-14a2 2 0 0 1-2-2v-9a2 2 0 0 1 2-2"/>
  <path d="M9.5 15a3.5 3.5 0 0 0 5 0"/>
  <line x1="15" y1="11" x2="15" y2="11"/>
  <line x1="9" y1="11" x2="9" y2="11"/>
</svg>