<?xml version="1.0" standalone="no"?>
<!DOCTYPE svg PUBLIC "-//W3C//DTD SVG 20010904//EN"
 "http://www.w3.org/TR/2001/REC-SVG-20010904/DTD/svg10.dtd">
<svg version="1.0" xmlns="http://www.w3.org/2000/svg"
 width="700.000000pt" height="700.000000pt" viewBox="0 0 700.000000 700.000000"
 preserveAspectRatio="xMidYMid meet">
<metadata>
Created by potrace 1.11, written by Peter Selinger 2001-2013
</metadata>
<g transform="translate(0.000000,700.000000) scale(0.100000,-0.100000)"
fill="#000000" stroke="none">
<path d="M2564 6120 c-205 -22 -370 -138 -462 -325 -33 -66 -62 -188 -62 -259
0 -103 -74 -215 -170 -260 -40 -18 -71 -21 -300 -27 -275 -8 -325 -15 -451
-69 -238 -101 -421 -304 -497 -550 -42 -137 -43 -189 -40 -1630 4 -1354 4
-1376 24 -1450 47 -167 109 -282 212 -392 111 -118 242 -199 403 -250 l74 -23
2200 0 c2095 0 2203 1 2265 18 284 79 512 289 605 556 55 156 55 154 55 1596
0 867 -4 1360 -10 1415 -45 364 -295 654 -646 751 -68 18 -116 23 -334 28
-287 7 -309 12 -383 87 -59 59 -78 104 -88 213 -5 52 -16 120 -25 151 -43 148
-151 285 -281 353 -143 75 -82 71 -1103 73 -503 1 -947 -2 -986 -6z m1819
-662 c9 -114 30 -186 87 -303 108 -219 281 -367 520 -447 94 -31 98 -31 355
-37 241 -6 264 -8 310 -29 59 -27 118 -82 148 -137 l22 -40 3 -1389 2 -1389
-23 -51 c-32 -70 -66 -107 -129 -141 l-53 -30 -2125 0 -2125 0 -55 31 c-63 36
-123 107 -139 168 -9 30 -11 423 -9 1421 l3 1380 22 40 c30 55 89 110 148 137
46 21 69 23 310 29 246 6 264 8 345 33 349 113 590 407 617 754 l6 82 877 0
877 0 6 -82z"/>
<path d="M2540 4071 c-122 -40 -203 -153 -204 -282 0 -112 58 -204 167 -261
60 -32 184 -32 244 0 66 35 110 78 140 139 67 138 7 313 -132 386 -44 22 -170
33 -215 18z"/>
<path d="M4290 4071 c-122 -40 -203 -153 -204 -282 0 -112 58 -204 167 -261
60 -32 184 -32 244 0 66 35 110 78 140 139 67 138 7 313 -132 386 -44 22 -170
33 -215 18z"/>
<path d="M2707 2910 c-84 -21 -154 -77 -195 -154 -22 -43 -27 -64 -27 -131 0
-102 27 -157 120 -243 172 -162 395 -277 636 -329 118 -25 400 -25 518 0 240
52 456 163 634 327 94 87 122 142 122 245 0 67 -5 88 -27 131 -52 99 -148 158
-258 158 -86 0 -138 -24 -238 -111 -92 -79 -183 -131 -292 -164 -97 -30 -280
-33 -380 -6 -105 28 -219 90 -309 168 -46 39 -102 79 -124 89 -53 23 -131 32
-180 20z"/>
</g>
</svg>
